<svg xmlns="http://www.w3.org/2000/svg" width="159" height="80" fill="none"><path fill="#fff" fill-opacity=".6" d="M35.674 19.536c-.074.444.37 1.332.222 2.146 0 0-.222.222-.222.296 0 .296.148.518.148.814 0 .666-.148.888-.074 1.554.074.37.148.518.074.74 0 .148-.37.518-.37.666 0 .296.296.296.296.592.074.148-.074.518-.148.888-.074.592.148 1.48.148 1.998 0 .296-.296.518-.37.814 0 .37.37 1.258.222 1.776-.074.222-.518.518-.518.74 0 .222.296.666.296.814-.074.518-.222.814-.37 1.258.074.074.296.148.222.296 0 .37-.37.666-.37 1.11 0 .296.148.666.222 1.036 0 .592-.296 1.258-.37 1.776-.074.592.074 1.11 0 1.702 0 .296-.296.592-.296.962-.074.814.074 1.554-.074 2.294-.148.37-.222.296-.148.814 0 .37-.148.962-.222 1.258-.074.148-.37.37-.37.518-.074.074.148.37.148.518 0 .37-.074.666-.148 1.11-.074.37-.074.814-.148 1.11-.074.296-.518.666-.592.962.074.148.296.296.296.518 0 .222-.37.518-.37.74-.074.148.148.222.222.37.074.37 0 1.11-.148 1.554-.148.296-.518.666-.518 1.184.074.222.296.148.222.37-.074.222-.37.296-.296.518-.222.814.148 1.85-.148 2.664-.074.222-.296.074-.222.296-.148.296.074.74 0 .962-.148.148-.518.296-.518.592-.074.37.518 1.332-.296 1.332.666.222 0 .74 0 1.036 0 .148.222.148.148.296 0 .074-.222.074-.222.148 0 .518.222.814.074 1.184-.074.296-.37.444-.444.666 0 .148.148.074.148.222.148.37-.296.888-.296 1.332-.148 1.036.222 2.146-.518 2.886.518.444 0 1.554.962 1.628-.37.444-.222 1.332-.296 1.998-.74-.296-1.036.592-1.406.592-.296-.074-.148-.222-.518-.666-.444-.222-.74-.148-.962-.518 0-.148.222-.222.222-.296-.074-.296-.37-.592-.444-.888-.074-.666 0-1.776.074-2.22.074-.666-.074-1.406.074-2.22.148-.444.666-1.85.592-2.368 0-.148-.148-.37-.222-.518 0-.148.37-.37.444-.518 0-.296-.074-.814 0-1.258 0-.37.37-.814.296-1.11.074-.148-.074-.37-.074-.518 0-.222.222-.444.296-.666 0-.296-.148-.592-.074-.814-.074-.222.148-.222.222-.37.222-.444.074-1.036.074-1.554.074-.37.222-.222.222-.814 0-.74.444-1.554.518-2.442.074-1.406.148-2.96.444-4.366.074-.222.148-.222.148-.74.074-.814.37-1.776.444-2.59.074-.444-.074-.74.148-1.184 0-.296.074-.444.074-1.036.074-.518.37-1.11.444-1.628.148-.962-.074-1.924.148-2.812l.296-.222c.074-.666-.148-1.184 0-1.998 0-.148.296-.296.296-.37.074-.962-.074-2.072.074-3.034 0-.37.296-.592.222-.888.074-.148-.148-.37-.148-.518 0-.148.148-.37.296-.74.074-.814-.148-2.072-.074-2.812.074-.888.074-2.59.148-3.626 0-.296.074-.37.074-.814-.074-.814.074-1.776.074-2.738s-.296-1.924-.296-2.738c.074-.074.296-.222.296-.37-.074-.444-.222-.222-.37-.666 0-.296.222-.296.222-.592 0-.37-.148-.444-.074-.814.074-.74-.592-2.738-.962-3.404-.074-.074-.222 0-.222-.074-.222-.518-.074-.888-.666-.814-.37 0-.37.888-1.184.666-.222.148 0 .37 0 .592-.074.148-.444.222-.592.444-.074.222-.148.814-.296.962-.148.148-.444.148-.444.222-.148.222.074.666-.074.962-.074.074-.296.074-.37.148-.074.222 0 .592-.074.962 0 .074-.222.074-.222.074-.222.296-.074.666-.222.74-.222.222-.518.148-.592.37-.148.148.148.444.148.74-.074.148-.296.296-.444.518-.296.814-.222 1.554-.518 2.22-.074.074-.296.222-.296.37-.074.148 0 .37-.074.518-.074.37-.518.518-.518.592-.074.148.148.592.148.814 0 .444-.222 1.036-.37 1.406-.148.222-.37.444-.444.74-.074.37.148.814 0 1.184 0 .296-.37.444-.444.666 0 .222.074.37.074.518-.148.296-.37.37-.37.592-.074.74.222 1.406 0 1.924-.074.296-.444.592-.518.814-.074.296 0 .666 0 1.036-.074.074-.296.148-.296.148 0 .444.222.962.148 1.406 0 .37-.37.666-.444.962 0 .222.222.666.222.888 0 .222-.148.074-.296.296 0 .148.074.37.074.444-.074.148-.296.148-.37.37-.074.37.148.592.148.962.074.444-.148 1.332-.222 1.998 0 .296.222.888.148 1.11 0 .074-.37.148-.37.222-.074.222-.074.814-.074.962-.148 1.11 0 2.886-.222 3.7-.074.37-.518.666-.518.962.074.296.296.444.222.666.074.222-.074.444-.148.666 0 .296.222.592.148.814 0 .074-.296.148-.296.296-.222.444.074 1.554 0 2.294 0 .444-.37 1.628-.962 1.702-.222 0-1.332.148-1.48.074-.666-.518-.074-2.96-.148-4.144.074-.74.074-1.406.148-1.85.222-1.406-.074-3.7 0-5.254 0-.37.222-.666.296-.962a1.767 1.767 0 0 1-.148-.666c-.074-.814.444-2.146.148-2.738 0-.148-.296-.148-.296-.222-.148-.666.148-1.85.222-2.812-.074-.296-.148-.592-.074-.814-.074-.148.074-.222.148-.296.148-.74-.222-2.368-.148-3.256.222-2.812.148-6.438-.148-9.62-.148-.962-.444-1.776-.444-2.59 0-.148.148-.444.148-.592 0-.148-.222-.37-.296-.666 0-.37.148-.814.148-1.184-.074-.37-.296-.74-.37-1.11 0-.222.222-.444.148-.666 0-.148-.148-.296-.148-.444-.148-.666 0-1.48-.074-2.146 0-.444-.518-3.034.74-2.294.222-1.036-.666-1.184-.666-2.442-.444 0-.666.592-.814 1.036-.148.222-.518.444-.592.592-.074.37.148.592.074.962-.148.296-.814.518-.888.814-.222.37.148 1.258-.518 1.332.296.296-.222.666-.222.814 0 .074.148.222.222.148-.074.074-.296.148-.37.296-.074.37.074.962-.074 1.258-.074.148-.444.37-.518.592-.222.444-.074 1.11-.222 1.776-.074 0-.222 0-.296.074 0 .074.148.148.148.222-.074.148-.37.296-.37.37-.074.222.296.74.074 1.11-.074.074-.444.222-.518.37-.296.888.666 1.924-.518 2.442.518.296.592.592.37.962-.296.592-.222.296-.148.888 0 .444 0 1.48-.148 1.85-.296.962-.592 2.812-.74 4.218 0 .296-.222.592-.296.888-.148 1.11.074 2.22-.222 3.108-.148.37-.592.74-.592 1.036-.074.666.222 1.554 0 2.146-.074.074-.37.148-.444.37 0 .444.296.962.148 1.406-.074.444-.592.74-.592 1.11 0 .296.148.592.222.74 0 .37-.148 1.184-.222 1.258-.074.222-.37.074-.444.37 0 .222.222.296.37.518 0 .296-.148 1.036-.296 1.406-.074.222-.444.37-.518.666.074.222.444.518.444.74.074.222-.518.888-.518 1.628-.074.37.148.666.074.962-.074.222-.296.37-.296.592 0 .296.222.592.296.814-.074.148-.37.074-.444.222-.074.296.074.814.074 1.11-.074.148-.37.37-.444.592.074.222.37.148.296.444-.074.148-.296.222-.37.37-.148.444.074 1.85 0 2.812 0 .296-.222.666-.296.888.074.296.222.592.222.814 0 .296-.148.518-.148.74-.074.37.148.814.074 1.11 0 .074-.148.296-.148.296 0 .148.148.074.222.37 0 0-.148 1.85-.37 2.294 0 .296 0 .444-.074.444l-1.406.444c-.37-.222-.37-2.368-.37-2.664 0-1.184-.222-2.22-.37-3.626-.148-.888-.148-1.776-.222-2.664-.148-1.48-.444-2.738-.37-4.07.074-.296.222-1.036.148-1.48-.074-.222-.296-.37-.296-.444 0-.222.074-.37.148-.592.074-2.59-.592-5.772-.592-8.362-.074-3.848-.37-8.066-.74-12.506 0-.444-.37-1.036-.444-1.628-.296-2.886-.296-6.216-.888-9.546 0-.222-.222-.444-.222-.666 0-.37.148-1.036 0-1.554-.074-.518-.37-1.036-.518-1.924 0-.666 0-1.406-.074-2.072-.074-.444-.296-.814-.296-1.184 0-.888-.148-1.554-.37-2.664-.148-.888-.74-1.924-.666-2.96C.08.666.376.074.524 0c.148 0 .962.148.888.222.074 0 .222.222.37.37.074.222.37.296.37.296.222.222.37 1.036.518 1.554 0 .074.296.222.296.296.222.74.148 1.628.296 2.22 0 .074.222.222.222.296.222.37.296 1.184.222 1.554.074.222-.148.518-.148.814.148.37.74.444.518.962-.296.37.074.148.074.444.074.222-.222.148-.222.222 0 .074.222.37.296.518.148.37 0 .296.074.666.518 1.628.148 3.626.666 4.81.074.37-.074.592-.074.888.148 1.184.518 2.146.592 3.478.074.444-.148.74 0 1.036.222.592.074 1.406.148 1.998.148 1.036.518 2.072.444 2.96 0 .148-.148.296-.148.444-.074.518.37 1.11.296 1.702-.074.148-.296.37-.296.592.074.518 1.036 1.48.148 2.22.222.222.444.592.444 1.184-.074.148-.296.37-.296.518 0 .074.296.148.37.296-.074.444.296 1.628.222 2.664 0 .222-.222 0-.296.148-.296 1.036.666 3.034.444 4.514 0 .074-.222.222-.222.296 0 .74.148 1.332.444 1.85.148-.296 0-.592-.074-.814.074-.296.222-.444.222-.962.074-.962.518-2.146.592-3.034.074-.444-.148-.962-.148-1.332.074-.222.296-.222.37-.518.222-.74-.074-1.776.074-2.442.074-.296.148-.148.222-.222.222-.518-.074-1.184 0-1.776.074-.592.37-.962.37-1.924 0-.592.296-1.11.37-1.554 0-.222-.222-.444-.148-.666 0-.296.222-.518.296-.814.074-.296-.148-.37-.148-.592-.074-.74.37-1.998.444-2.96.074-.222-.148-.518-.074-.74.074-.148.37-.37.37-.518 0-.222-.074-.444-.074-.814.074-.518.444-.592.074-1.11.592-.592.148-1.924.444-2.886 0 0 .37-.222.296-.37.074-.222-.074-.518-.074-.814.074-.222.37-.222.444-.444.148-.37-.074-1.11.148-1.554.074-.148.296-.074.37-.222.148-.37-.074-.666.074-.962.074-.148.37-.074.444-.148 0-.222-.074-.518.074-.74.148-.518.37-.962.74-1.48.148-.37.518-.74.592-.888 0-.222-.074-.518 0-.666 0-.148.296-.444.518-.74.074-.222.222-.74.296-.888.074-.148.296-.074.37-.148.074-.222.074-.444.148-.592 0-.148.37-.37.592-.666.518-.888 1.628-1.924 3.108-1.628.074 0 .592.148.814.296.148.074.074.222.296.37.222.296.74.074.74.666.592-.518.37.888.37 1.11 0 .148.37.296.37.518.074.222-.148.37-.074.444.074.222.37.148.444.37.444.592-.074 1.184 0 1.702.074.148.222-.074.296 0 0 0 .148.814.148.962 0 .148-.296.444-.296.592.074.222.296.37.37.592.148.37.296 1.406.222 1.776 0 .074-.37.296-.444.444.074.37.444.444.518.814 0 .518-.74.962-.37 1.554.148.222.518-.074.444.592 0 .148-.148.148-.222.296 0 .296.296.962.148 1.48-.074.222-.296.444-.222.666 0 .148.222.074.222.222.296.888-.444 1.702-.444 2.146 0 .37.444.518.518.666.074.37-.222.592-.222 1.036 0 .222.222.222.296.444.074.296-.148.74 0 1.11.444-.148.296-.666.296-.962.222-.37.518-.666.592-1.11 0-.148-.148-.37-.074-.518.074-.148.148-.074.296-.222.148-.518.222-1.406.518-2.072.074-.296.37-.518.444-.888.074-.444.074-.814.222-1.258.074-.148.592-.814.74-1.11 0-.222 0-.592.074-.74 0-.148.222-.148.37-.296.074-.222-.074-.518.074-.666.148-.296.518-.444.592-.74.222-.518.296-1.036.666-1.628.148-.222.518-.518.74-.814.222-.37.222-.296.518-.74.148-.148.148-.37.222-.37 0-.074.296 0 .37 0 .296-.296.296-.518.888-.74l.962-.222c.074 0 .814 0 .962.074.296.074.814.888 1.11.888.296.148.37-.074.518 0 .296.37.148.814.37 1.184 0 .222.296.37.37.592.148.148 0 .444.074.518.37.962 1.11 1.11 1.11 2.442 0 .444-.148.592 0 1.036.074.296-.074.666-.074.814 0 .222.37.518.37.666.222.74 0 1.554-.074 2.146zM49.41 40.108c.74-.518 1.85.296 1.333.814-.592 1.258-.592.962-.962 1.554-.074.074-.296.074-.444.222-.074.148-.074.37-.148.444-.148.074-.74.444-1.036.518-.148.074-.296-.148-.518-.074-.444.074-.666.444-1.332.222-.37-.148-1.184-.74-1.332-1.036-.296-.444-.148-1.258-.814-1.406.074-.666 0-2.442-.666-2.368-.222 0-.222.444-.37.666-.148.222-.666.296-.888.666-.148.222-.592.74-.814.814-.148.074-.444-.222-.888-.074-.148.074-.222.222-.296.222-.888-.074-1.258-1.11-1.85-1.702h-.222c-.296-.518-.074-1.258-.148-1.924-.074-1.036-.444-2.22-.222-2.886.074 0 .296 0 .296-.074 0-.37-.148-.888-.074-1.258 0-.222.37-.444.444-.74.074-.444-.074-.814.074-1.332l.444-.444c0-.222-.148-.592-.074-.74.148-.222.518-.222.666-.518.074-.074-.074-.148 0-.37.074-.074.296-.148.296-.148 0-.222-.148-.518.074-.666.074-.148.222-.074.296-.222.074-.222.222-.296.444-.518.148-.222.222-.592.518-.814.666-.666 2.59-1.406 3.7-.962 0 0 0 .222.074.222 0 .074.37 0 .37 0 .222.222.222.74.666.666.148.222.222.222-.074.37.148.148.37.148.37.37.148.37-.148.296-.222.592-.074.074 0 .74-.296.814-.444.074-.666-1.11-1.11-1.258-.222-.074-.37.148-.518.222-.518 0-.592-.296-1.11 0-.222.148-.592.666-.814 1.036-.074.074 0 .37-.148.518-.074.074-.296.074-.37.148-.148.148 0 .37-.074.518 0 .074-.222.148-.296.222-.37.444-.074.814-.444 1.258-.296.518-.074.296-.148 1.11-.074.148-.37.444-.444.592 0 .148.074.37.148.592 0 .296-.222.666-.296.962 0 .37.148.888.074 1.332 0 .444-.296.888-.37 1.258.074.222.148.37.148.518 0 .148-.148.444-.148.518 0 .074.814.592.74.592.888.148.666-.592 1.11-1.184.074-.222.518-.444.666-.666.148-.222.074-.592.148-.814.074-.222.37-.148.444-.296.074-.148-.074-.37 0-.592.148-.148.37-.296.37-.444.296-.592.148-1.184.37-1.628.074-.074.37-.148.444-.222.148-.444-.074-.74.074-1.184.222-.666.444-1.406 1.258-1.406.296 0 1.184.518 1.258 1.48-.074.222-.37.518-.444.666-.074.37.148.666.148.888-.222.37-.518.444-.592.592-.148.222.222.74.222 1.11.074 1.184-.592 1.554-.37 2.886.074.74.148 1.776.444 2.442 0 .296.592 1.332.74 1.406.592.222 1.776-.74 1.924-.888.222-.222.37-.74.592-1.184zm-3.847 1.406c.37 1.036 1.184 1.406.888.74 0 0 .074-.148 0-.148 0-.222-.37-.888-.518-1.11-.222-.37-.592-.74-.592-1.258-.222-2.22-.222-1.924-.222-2.22 0-.222.296-.814.222-.814.074-.074-.148-.296-.074-.37 0 0 .222-.148.148-.296l-.37-.444c-.296.296.074.592.074.814-.148 0-.148.148-.148.222-.148.37-.814 1.554.074 3.478.074.074 0 .222 0 .222.148.148.296.222.148.37.37.074.074.592.518.592-.148.074-.148.074-.148.222z"/><path fill="#fff" fill-opacity=".6" d="M54.553 25.53h-.37v-.074c.148 0 .221 0 .37.074zm-.37 0c-.297.37-1.036.296-1.333.37.075-.074.075-.148.075-.148.37-.148.814-.222 1.258-.222zm1.998 3.922c-.075.148.074.444 0 .592-.222.222-.148-.148-.518.148-.074 0-.074.296-.074.296-.297.148-1.11.074-1.184 0-.593-.444.591-2.738-.593-2.738-.37-.074-.148.222-.295.444 0 .074-.223 0-.223 0-.221.222-.37 1.036-.444 1.11-.148.074-.296 0-.517.148.074.518 0 .888-.444.888.37.888-.37.888-.075 1.554-.666 0-.444 1.11-.74 2.22l-.295.444c-.075.666.147 1.48 0 1.998l-.223.296c-.073.518.223 1.406-.37 1.776-.295.148-.666 0-1.035.148.221-.296-.37-.444-.445-.74-.222-.444.148-1.628.222-2.59 0-.444-.073-.888 0-1.258.075-.37.297-.518.223-.888 0-.148-.223-.222-.223-.296-.147-.518.223-.666.223-1.11.073-.37-.075-.592 0-.962.221-1.332.073-3.404.517-4.44.444-.962 1.48-.74 1.85.074-.074.222-.296.296-.296.592.666.222.74-.592.889-.74.074-.074.296-.148.444-.148l-1.998 2.146c.444-.074.813-.444 1.035-.666.444-.148.37 0 .74-.888 0-.222.666-.296.74-.37l1.332-.296c.518-.37.814 1.406 1.258.74-.221-.444-.517-1.184-1.11-1.406.148 0 .297 0 .37.074.297.074.37.666.815.962.148.148.517.074.591.444.075.37-.222.666-.148 1.036 0 .148.223.296.223.592 0 .222-.148.444-.222.814zM52.85 25.9c0 .148-.075.222-.075.222l-.222.148.222-.296s.074 0 .074-.074zm-2.368 2.664c0-.074 0-.074.074-.148l-.075.148zm21.968 1.48c.222.148-.222.296-.148.962-.962-.296-.148.962-1.036 1.036.222.37-.222.592-.37.74 0 .074.074.222 0 .296 0 .148-.37.222-.444.37-.148.148-.148.37-.222.444-.148.222-.444.222-.518.37-.148.074-.148.444-.148.444-.148.148-.518.074-.666.222-.296.148-.444.592-.592.74-.074 0-.37-.074-.444 0-.296.296-.444.888-.814 1.11-.148.074-.444 0-.592 0-.148.074-.222.37-.444.592-.222.148-.444.074-.518.148-.074.074-.074.37-.148.444-.296.148-.666-.074-.962.148-.148.074-.148.37-.296.37-.592.37-2.812.444-3.33-.074.592-.37-.37-.592-.444-.74-.074-.074.074-.296 0-.37 0-.148-.37-.296-.37-.37-.222-.444-.37-1.924-.592-.814-.222 1.11.074 2.442-.074 3.7 0 .148-.296.296-.37.444-.222.666-.074 1.554-.148 2.072 0 .148-.148 1.258-.37 1.184-.74-.148.518 0-1.036-.444l-.296-.444c0-.518-.148-2.442-.074-2.886.296-1.776-.148-3.848.074-5.106.074-.296-.074-.666 0-1.184 0-.222.148-.148.222-.37.074-.222-.074-.518-.074-.814 0-.962.148-2.442.222-3.33.074-.74.148-1.554.074-2.368h.074c.962-2.886.962-7.992 1.406-10.952.074-.222-.074-.592 0-.962-.074-.37.074-.962 0-1.332l.222-1.406c.074-.222.222-.148.296-.296.222-.444.074-.888.296-1.48.074-.222.666-.814.814-1.11.074-.074-.074-.37 0-.444.518-.518 1.48-.518 1.628-.296.222.222-.074.592-.074 1.11 0 .074.222.444.222.37 0 .074-.222.74-.296.888-.148.148-.37.148-.444.296-.074.444.148.962 0 1.48 0 .148-.296.296-.296.444 0 0 .148.666 0 .962 0 .074-.222.296-.222.37-.074.444.074.888 0 1.258-.074.222-.296.296-.37.444 0 .222.222.444.148.666 0 .222-.296.37-.296.518-.074.222.148.296.148.666.074.814 0 1.11-.666 1.702.962.592-.518 2.812.222 3.404-.444.37-.074.74 0 1.11.222.666-.518 1.48-.518 2.442-.074.296.222.518.222.666 0 .518-.222.814-.222 1.258.592-1.036.814-1.85 1.776-2.886.592-.592 1.998-1.924 3.108-.888 0 0 0 .296.148.37 0 0 .444.222.444.148.074.148.074 1.406 0 1.85 0 .074-.222.222-.222.296-.148.296 0 .666 0 .888-.074 0-.37.148-.444.296-.074.148.074.37 0 .592 0 .074-.296.148-.296.296-.148.444.222.444-.296.592-.444.148-.37.74-.814 1.332-.148.222-.518.37-.666.518-.074.148.074.444 0 .592-.148.444-.814.666-.888.814-.222.444 0 .888-.074 1.184 0-.074-.296.296-.37.296 0 .444.518 1.924 1.036 2.146.296.148 1.036 0 1.184-.148.222-.296.74-.296 1.184-.592.148-.074 0-.148.074-.222.074-.074.518-.074.592-.148.074-.074.074-.37.148-.444.296-.222.814-.222 1.036-.518.518-.37 1.258-.74 1.776-1.184.37-.37.666-.962.962-1.184.074-.074.37 0 .444-.074.296-.296.518-.888 1.036-1.406.074-.074.296-.074.444-.148.074-.074.074-.296.148-.37.074-.148.222-.148.74-.518.666-.444.222.074.444.222zM58.612 15.836c0 .222-.296.37-.296.592 0 .074 0 .222-.074.37-.074-.296-.296-.518 0-1.184.074 0 .296-.222.37-.37.074-.074-.074-.296-.148-.518-.074-.592 0-1.11.148-1.85.296 0 .37.148.37.444 0 .222 0 .444-.074.592-.074.222-.222.37-.296.518-.074.518.148.962 0 1.406zm-.222 2.738c0 .074-.222.148-.222.148-.074.074-.074.148-.148.296.148-.962.148-1.702.222-2.22.074.074.074.148.074.222a1.961 1.961 0 0 0-.074.962c-.074.222.148.444.148.592zm-.518 1.702c-.074-.444-.074-.814.148-1.258 0 .37-.074.814-.148 1.258zm.074.148c.074.37-.074.666-.222.962.074-.37.148-.74.148-1.11.074 0 .074.074.074.148zm-.222.962c0 .296 0 .518-.074.814 0 .148-.074.296-.074.444 0-.148-.074-.296-.074-.444 0-.296.148-.518.222-.814zm-.148 1.258c.074.592.222 1.11.074 1.702 0 .074-.074.148-.148.222 0-.666 0-1.258.074-1.924zm-.148 2.294c-.074-.222 0-.296.074-.37v1.998c-.592-.074-.074-.296 0-.592.074-.37-.296-.74-.074-1.036zm3.182 7.104c.814-2.072 2.368-3.404 2.96-5.698-.37 0-.814 0-1.11.148-.222.148.074.296-.074.444-.148.148-.444.148-.518.222-.148.37-.074.962-.222 1.406-.148.666-.814.962-.962 1.332-.296.74.222 1.998-.592 1.776 0 .296.148.444.518.37zm55.384-11.1c.296.222 1.036.148.444.814.074-.074-.814.444-.666.444-.296 0-.222-.148-.37-.296-.148.148-.37.148-.444.37-.518-.518-.74.148-1.258.222-.37.074-.666-.148-.888-.074-.37.148-.592.518-.888.592-.148 0-.222-.222-.296-.222-.518-.148-.814.444-1.11.592-.074-.074-.222-.296-.518-.222-.148.814-.074 1.702-.296 2.664-.074.296-.148.222-.222.814-.074.296-.296.666-.296.962-.074.222.074.444.074.74-.074.222-.296.444-.296.666 0 .148.148.296.222.444.074.814-.814 1.48-.222 1.776-.296.592-.148 1.332-.814 1.85-.222.222.444.666.296 1.332-.074.148-.222.222-.296.296 0 .296.074.37 0 .592-.148.444 0 .74-.148 1.406-.074.444-.296.37-.148.666.296.74-.37.888-.518 1.406-.074.518.074 1.924-.074 2.664 0 .148-.148.37-.148.444 0 .074.148.074.148.222 0 0-.222.148-.222.222l-.222.888c-.074.74.148 1.628-.148 2.368-.074.296-.518.444-.37.814 0 .222.222.222.222.37 0 .222-.222.37-.222.518-.074.222.222.222.222.444.074.222-.222.37-.222.666-.074.074.148.222.148.37 0 .296-.296.74-.37.962 0 .296.222.518.222.888-.074.888-.296 2.368-.74 2.664 0 .222.074.444.37.444-.222.37-.592 1.036-.074 1.258-.296-.074-.074.592-.148 1.11-.074.37-.222.592-.222.74 0 .074.148.074.222.148.148.444.074 1.554 0 2.146-.074.444-.37.814-.592 1.036.74.444.444 1.998 0 2.516.148.222.296-.148.444.074-.222.888.148 1.776.074 2.812a12.475 12.475 0 0 0-.148 1.85s0 .444.074.74c.074.518.074 1.184.148 1.702 0 .148.222 0 .222.074.222.444.296 1.776.37 2.368 0 .222-.148.518-.074.666 0 .074.296.148.296.296.074.222-.148.518-.074.814 0 .222.296.518.37.888.148.518.074.888.222 1.11 0 .074.296 0 .37 0 .222.222.074.814.148.962.222.222.592.148.962.296.37.222.592.666.296 1.332 0 0-.222-.074-.222 0-.222.148 0 .296-.074.37-.074 0-.666.222-.666.222-1.036.148-2.664-.296-2.886-.74-.074-.074.074-.296 0-.37-.148-.148-.37-.074-.592-.222-.074-.074 0-.296-.148-.518-.074-.148-.37-.222-.444-.296-.074-.296 0-.666-.148-1.036-.074-.296-.444-.37-.592-.592-.074-.296 0-.74-.148-1.036-.074-.296-.37-.37-.37-.666-.074-.296-.222-1.11-.37-1.628-.148-.444.074-.888 0-1.332-.148-.666-.518-.962-.444-1.628 0-.74 0-1.776-.148-2.516-.148-.888.148-2.294 0-2.96 0-.074-.222-.296-.222-.444 0-.148.222-.148.222-.296.148-.37-.148-.888-.148-1.258 0-.814.296-1.628.296-2.516 0-1.406-.074-2.886.222-4.44.148-.74-.222-1.924 0-2.442 0-.074.222-.148.222-.296.074-.296-.074-.666-.074-1.036 0-1.036.444-2.516.518-3.478 0-.222-.148-.592-.074-.814 0-.296.296-.592.37-.888.148-.666.074-1.48.148-2.516.074-.444.37-.962.37-1.258 0-.222-.222-.444-.148-.666 0-.222.148 0 .222-.148.074-.296 0-1.48.148-2.368.074-.37.37-.74.37-.888 0-.148-.222-.222-.222-.37.074-.222.296-.444.37-.74.074-.296 0-.666.074-.962.296-1.406.592-3.7.888-5.032.074-.148 0-.296 0-.444.074-.148.222-.296.222-.444.074-.148-.148-.148-.148-.148.074-.148.296-.444.37-.666.074-.37-.074-1.036 0-1.628 0-.518.296-.888.37-1.332.074-.444 0-.814 0-1.036.074-.37.37-.962-.296-1.036-.222 0-.222.444-.666.592-.444.222-.962.074-1.258.148-.296.148-.444.444-.666.444-.074 0-.296-.148-.222-.148-.148 0-.148.222-.296.296-.296.148-.814 0-1.11.074-.37.148-.37.666-.962.666-.074 0-.296-.148-.444-.148-.444.148-.518.592-.888.74-.296.148-.888-.074-1.184.074-.148.074-.296.296-.444.296-.74.222-1.258.518-1.85.962-.074 0-.074.222-.148.222-.148.074-.444-.074-.592 0-.222.074-.888.592-.962.74-.148.444 0 1.11-.296 1.48-.222.222-.37.074-.444.296 0 .222.148.37.222.518 0 .296-.296 1.11-.37 1.332 0 0-.222-.074-.222 0-.518 1.036-.222 1.628-.518 2.59 0 .148-.37.37-.444.592-.074.148 0 .296 0 .444-.074.074-.37.222-.444.37-.148.592.074 1.184-.148 1.628 0 .074-.296.074-.37.074-.074.148.074.296 0 .518-.148.666-.74 1.11-.296 1.924-.962-.296-.222 1.85-.74 2.368-.148.148-.37-.074-.444.074-.148.37.222 1.036-.148 1.702-.074.074-.37.148-.37.222-.37.888.222 1.702-.592 1.776 0 .37.148.74-.074 1.11-.074.148-.518.222-.518.296-.074.222.148.592.074.962 0 .222-.74.888-.814 1.11-.074.148.148.444.074.592 0 .148-.222.222-.222.37-.074.296.074.592 0 .74-.074.148-.444.148-.592.37-.074.148 0 .592 0 .592h-.222c-.074.222 0 .518.148.74-.074.148-1.036 2.516-1.48 1.628-.074-.148-.074-1.184 0-1.554.148-1.036.592-1.776.814-2.59.444-1.406.666-2.738 1.11-4.292 0-.148.148-.148.222-.37.222-.592.074-1.406.296-1.998.074-.148.296-.222.37-.296.148-.296 0-1.258.222-1.628.074-.074.222 0 .222-.148.222-.74.148-1.554.37-2.22.074-.296.296-.518.37-.814.222-.666.148-1.406.37-2.072.148-.592.518-1.036.592-1.628.074-.962.222-1.554.518-2.59.074-.148.148-.518.296-.888.148-.518.222-1.036.296-1.258.074-.37.518-.518 0-.666-.222.074-.148.37-.296.444-.296.074-.518-.074-.74 0-.222.148-.148.518-.296.592-.222.222-.592-.074-.888 0-.148.074-.444.37-.666.518-.444.296-1.258.666-1.776 1.036-.222.148-.296.518-.74.444 0 .148.222.074.148.296-.592-.148-.888.444-1.406.74-.222.148-.592.148-.814.37-.074.074-.148.296-.222.37-.148.074-.37 0-.518 0-.148.074-.148.296-.296.444-.74.518-1.628.222-1.628 1.332-.518 0-.74-.074-1.036.148-.296.222-.444.814-.666.962-.296.222-.962 0-1.184.222-.148.148 0 .518-.148.592-.148.074-.37 0-.518.074-.444.222-.37.444-.962.592-.296.074-.222.37-.444.518-.444.296-1.258.296-1.258 1.036-.592-.148-.814.814-1.258.74-.518-.074-.518-.37-.518-.296-.296-.814.444-1.11 1.036-1.554.37-.296.74-.814 1.332-1.036.296-.074.296-.518.444-.592.148-.074.444-.074.666-.222 1.184-.962 3.108-1.85 4.514-2.96.074-.074.148-.296.296-.37.222-.222.666-.222.888-.37.148-.074.074-.296.296-.37.37-.37 1.11-.518 1.554-.814.074-.074.074-.296.148-.37.222-.148.592-.148.814-.296.222-.222.888-.518 1.11-.74l.74-.444c.148-.074.222-.296.37-.37.518-.37 1.184-.592 1.776-.962.37-.222 1.11-.814 1.554-1.11.444-.296.962-.296 1.258-.592.074-.074 0-.296.074-.37.074-.148.444-.592.592-.962 0-.074-.074-.296 0-.37.074-.148.222-.148.296-.37.296-.37.222-.962.444-1.332.074-.222.296-.296.37-.444.148-.296.074-.666.222-.888 0-.074.222 0 .222 0 .296-.37.148-.814.296-1.332.148-.296.518-.592.592-.888.074-.222-.074-.444 0-.592.222-.518.592-.888.74-1.48.148-.74.222-1.776.592-2.516 0-.074.222 0 .222 0 .074-.148.148-.74.37-1.11.074-.148.37-.296.37-.37.074-.222-.074-.518 0-.666.148-.222.444-.296.592-.518.296-.37.148-.888.296-1.406.074 0 .296 0 .37-.074 0 0 0-.518.222-.962.148-.222.444-.37.592-.592.148-.296.074-.37.296-.666.222-.222.074-.37.296-.814 0 0 .222 0 .37-.222.222-.296.296-.814.37-.888 0-.074.222 0 .222 0 .222-.444.074-.74.222-1.036.222-.222.666-.444.888-.814.148-.074.074-.296.222-.444.074-.074.296-.074.37-.148.148-.148.074-.444.148-.592.074-.074.296 0 .37-.074 0-.074-.074-.296 0-.37.148-.148.518-.148.74-.296.148-.222.222-.592.37-.74.222-.148.444-.148.592-.296.074 0-.074-.222 0-.296.148-.148 1.554-.962 1.702-1.036.296-.148.888-.148 1.258-.074.37 0 .888-.148 1.11 0 .222.074 0 .222.296.518.148.148.518 0 .666.148 0 .074 0 .444.074.518.074.148.444.074.518.148 0 .074-.074.296 0 .518.074.222.296.074.296.148.148.37 0 .74.222.888l.37.148c.222.592-.296 1.332-.296 1.924.074.592.518.74.37 1.258-.074.296-.74.74-.074 1.332-.888.296.296.518.148 1.258 0 .148-.444.814-.444.814.074.222.37.37.444.592.222.814-.222 2.22-.296 2.886-.074.222.37-.074.296.148.296.37-.296.296-.444.518-.222.592-.074 2.146-.074 3.034 0 .296 0 .814-.074.962h-.296c-.074.296.37.888 0 .962.592.074 1.554 0 2.516-.222.074 0 .222-.222.37-.222s.444.148.518.148c.592 0 1.48-.296 2.146-.148.222.074 0 .074.296.222zm-10.36 1.48c.37-.148 1.036 0 1.184-.222.296-.444.074-3.034.222-3.848v-.37c0-.074.296-.148.296-.222.074-.148.148-.592.148-.74 0-.148-.148-.074-.222-.148-.222-.592.296-1.776.296-2.738.074-.444-.222-.888-.222-1.258 0-.222.148-.444.148-.814.074-1.11-.148-2.59-.148-3.552 0-.296.148-1.554-.074-1.924-.296-.444-.962 0-1.332 0v.74c-.592-.148-.37.37-.592.592l-.592.592c-.222.148-.518.148-.592.296-.074.148-.074.37-.148.518-.222.148-.666.148-.74.296-.148.148 0 .518-.074.74-.148.222-.37.148-.518.37-.296.37-.222.962-.888 1.036.518 1.036-.666 1.406-1.184 2.294-.074.222 0 .592-.148.814-.148.148-.37.074-.444.148-.074.296-.074 1.036-.296 1.628 0 .074-.222.074-.222.148-.222.222-.222.888-.37 1.036-.074.148-.37.074-.37.222-.148.444.148.962 0 1.332-.074.222-.518.296-.592.518-.222.296-.074.814-.148 1.036-.074.148-.37.074-.444.148-.222.296.074.296-.222.444-.074.074-.074.37-.074.37-.148.222-.518.296-.592.518-.074.148.074.37 0 .592h-.222c-.148.296.074.814 0 1.11-.148.296-.814.518-.814 1.11-.074.518-.074.592-.37.962.74.148 1.11-.296 1.628-.592.148-.074.37.074.518 0 .37-.148.592-.592 1.036-.74a6.542 6.542 0 0 0 1.48-.518c.37-.222.962-.222 1.258-.37.074 0 .074-.222.148-.222 1.11-.444 2.294-.592 3.552-.888.222-.074.444-.37.74-.444zm1.258 10.656c.074-1.628.666-3.256.814-4.736-.888-.074-.962.518-1.036 1.258 0 .666 0 1.258-.074 2.146-.222.962-.296 2.146-.37 2.812-.074.222 0 .148-.074.518 0 .296-.296.444-.222.518 0 .37.222.444.148.666 0 .222-.37.37-.444.592-.074.37.148.962 0 1.628-.074.296-.296.592-.296.814-.074.888.296 1.628-.37 1.924.222 0 .296.074.222.296-.888.296-.074 1.11-.074 1.48 0 .074-.222.296-.296.444-.296.592-.148 1.554-.296 2.22-.074.222-.296.444-.296.444-.074.444.222.592-.222.74.592.37-.444.888.148 1.332-.148 0-.222 0-.222.148-.592 1.776.148 3.774-.962 5.106.814.148 0 1.184.518 1.554.296-.222 0-.444 0-.518.074-.148.296-.074.296-.222.222-1.184.296-2.59.592-3.922 0-.074.222-.148.222-.222.148-.296.222-1.628.296-2.072.222-.814.148-1.85.296-2.59 0-.222.296-.444.37-.592.074-.296.074-1.258.074-1.332 0-.148-.222-.37-.222-.518 0-.148.296-.37.37-.444.296-.962 0-2.442.296-3.478.37-1.406.222-3.7.666-5.032 0-.148.222-.222.296-.296 0-.222-.148-.518-.148-.666z"/><path fill="#fff" fill-opacity=".6" d="M121.954 33.892c.222-.074 1.554-.592 1.554.148 0 .222-.814.518-1.11.74-.074 0-.074.222-.074.222-.148.074-.37-.074-.444 0-.148.148-.148 0-1.628 1.332-.222.222-.518.666-.666.814-.444.222-.222.592-.666 1.184-.148.148-.296 0-.444.074-.148.148-.074.444-.222.518-.222.148-.518 0-.592.074-.148.148-.222.814-.444.962-.296.222-.444 0-.592.222-.148.148.074.37 0 .518-.296.666-1.11 0-1.332.74-.148.592.518 1.406.592 1.702.074.148-.074.444 0 .74 0 .222.222.444.296.74.074.074 0 .222 0 .296-.074-.148-.222-.37-.222-.518-.37-.888-.148-1.998-.888-1.85 0 .888.148 1.406.37 1.998 0 .074.444.37.37.444a1.925 1.925 0 0 0-.222.518c-.148.814.37.888.444 1.406-.074.222-.074.592.148.666 0 .296.222.666.296.666-.074.148-.222.148-.222.148-.074.666.148 1.184.296 1.628.296.74.074 1.184-.074 1.85l.592.814c-.148-1.554-.37-3.774-.74-6.882.222.518.518 1.11.518 1.554 0 .444-.148 1.036.074 1.406 0 .074.296.074.296.074.222.962-.074 2.664.148 3.774 0 .222.296.444.296.592 0 .074-.148.148-.222.296v.222c-.074.222-.074.37-.074.444 0 .296.074.518 0 .74 0 .074 0 .148-.074.148v-.444c-.074.148-.074.37-.074.592-.074.222-.222.518-.222.74 0 .37.222.74 0 1.258-.074.296-.444.444-.518.74-.148.37-.148 1.184-.296 1.406-.074.148-.518.148-.592.37-.074.296.148.74 0 1.036-.222.074-.296-.074-.444-.074-.148.37-.37 1.036-.666 1.258-.074 0-.296-.148-.444 0-.222.222-.074.592-.37.666-.148.074-.296 0-.444 0-.148.148-.148.444-.37.518-.518.222-1.258-.148-1.406.666-.222-.148-.37-.296-.74-.296-.074 0-.444.148-.444.148-.222-.074 0-.222-.296-.518-.074 0-.37-.074-.592-.222l-.37-.444c-.296-.148-.666 0-.74-.148-.148-.148-.074-1.184-.74-1.036.444-.444-.222-.444-.37-.814-.074-.37.148-.888 0-1.258 0-.074-.222-.074-.222-.074-.222-1.184-.148-2.812 0-4.144 0-.37-.074-.74 0-1.036h.222c.074-.148.148-.518.148-.74.148-.37.074-.74.222-1.258.296-1.11.888-2.146 1.258-3.256.222-.518.37-1.184.592-1.702 0-.074.222 0 .222 0 .222-.296.37-1.258.518-1.48.074-.074.296 0 .37-.074.222-.444.444-1.258.814-1.702 0 0 .222.074.222 0 .148-.296.148-.74.296-.962.148-.074.444-.074.518-.148.074-.148.074-.37.148-.592.148-.148.444-.222.592-.592.222-.444 0-1.258-.592-1.332-.148-.592 0-1.184-.222-1.85 0 0-.074-.222-.148-.296-.222-.296-.074-.074-.296-.592 0-.074-.222-.222-.222-.222-.074-.444.074-.888-.074-1.258s-.222-.444-.222-1.036c-.148-1.85-.666-4.44 0-6.364.074-.222.222-1.036.37-1.406.148-.222.592-.444.74-.74.148-.222.074-.518.148-.74.592-.814 1.776-1.184 2.812-1.702.148-.074.222-.222.518-.296 0-.074-.074-.222 0-.296.222-.148.592.148.888 0 0 .37-.518.148-.592.37.444.518 1.036.074 1.554.37.37.296.518.444.592.814.074.148.296.296.296.37.074.222 0 .518 0 .666.148.148.37.148.37.37 0 0-.444.74-.592.814-.148.148-.518.148-.666.074.444-1.036-.888-1.184-.888-1.776-.37.296-.814 0-1.11.148-.148.074-.222.37-.296.444-.074.074-.222-.074-.296 0-.074 0-.074.222-.148.37-.296.296-.74.296-.888.74 0 .148.148.444 0 .592 0 .074-.296.074-.37.148-.148.222-.074.74-.148 1.184-.222.74-.74 1.11-.74 1.48 0 .222.222.296.296.666.074.148-.074.222-.148.444-.074.444.148.888.148 1.332 0 .37-.296.444-.148.814.148.444 0 1.184.148 1.85.074.074.222 0 .296.074.074.074 0 .74.222 1.258.074.296.37.592.444 1.036.074.222 0 .37 0 .666.148.37.666 1.036.592 1.036.222.074.814-.592 1.11-.814l.518-.444c.148-.074.148-.444.296-.518.074-.148.444-.148.444-.222.148-.074 0-.222.148-.37 0-.148.296-.148.518-.37l1.184-.74c.518-.37 1.924-1.554 2.146-1.628.296-.074.666-.592.888-.666zm-6.66 14.652c-.074-.37-.37-.666-.444-1.036 0-.296.148-.74 0-.962 0-.148-.296-.074-.296-.222 0-.074.074-.296.074-.444 0-.222-.222-.518-.296-.814-.222-.74 0-1.702-.592-1.702.296 0-.666.592-.666.666-.222.222-.296.444-.518.666-.148.222-.222.666-.296.814-.074.148-.37.074-.444.148 0 .074.074.222 0 .296 0 .148-.296.222-.296.296-.074.222.074.444 0 .518-.074.148-.37.074-.444.222 0 0 0 .592-.148.74 0 0-.222-.074-.222 0-.074.148 0 .444-.074.666-.148.444-.518.592-.518.814 0 .296.148 0-.074.37-.074.074 0 .296-.074.444-.148.222-.592.37-.592.37-.148.444.222.592.148.888 0 .222-.37.296-.444.444-.148.222.074.444 0 .74-.074.148-.37.296-.444.592-.074.592 0 .814-.37 1.036.37.37.296.592.222.888 0 .148-.296.074-.296.074-.444.666.148 1.48.074 1.924-.074.222-.296.074-.296.222.074.444.444.814.444.962 0 .222-.222.444-.222.518-.074.444.222.666.296.814.222.444.148.888.296 1.258.222.37.74.666 1.036.962.074.148.074.37.148.444.592.296 1.776.148 2.146 0 .148-.074.444-.518.814-.814.074-.074.296-.074.37-.148.592-.666.666-1.036 1.036-1.924.296-.666.592-1.11.74-1.85.074-.74.444-1.258.518-2.072.148-.814-.148-1.85 0-2.664.296-.962-.148-2.146-.296-3.256-.074-.296.074-.592 0-.888zm1.036-2.738c-.074-.222-.148-.37-.148-.518v-.37c.074.074.074.074.074.148l.074.74zm.962 9.25c.148 2.072-.074 1.184-.074.148.074 0 .074-.074.074-.148z"/><path fill="#fff" fill-opacity=".6" d="M135.598 29.748c.518.074 1.035.37.739.74-.148.148-.222.888-.444 1.258 0 .074-.222.592-.222.592-.074.074-.443 0-.517.074-.148.296.073.666-.075.814-.074 0-.444 0-.518.074-.222.222-.295 1.11-.517 1.48 0 .074-.74.148-.444.592-.74-.444-.593.74-1.037 1.184-.296.222-.518-.074-.666.222-.148.296.074.814-.222.888-.074 0-.147-.222-.295-.148-.074.074-.001.296-.149.37-.074.148-.296.074-.37.148-.148.074-.148.296-.222.37-.074.148-.443 0-.591.148-.518.37-.297.518-1.037.592 0 0-.296.148-.37.148-.074.074-.074.296-.148.296-.518 0-.74-.666-1.258-.444-.296-1.036-.518-2.22-.444-3.552.074-.666.222-1.406.222-2.072-.074-.222-.222-.444-.222-.592.074-.888.518-2.664-.37-3.034.222-.296.518-1.332-.444-.962 0 0-.222.37-.296.37-.518.148-.074-.074-.444.444 0 0-.222-.074-.222 0-.148 0 0 .444-.518.296-.074.37.075.518.149.74-.148.148-.667.296-.889.592-.074.148.222.222.222.37-.074.222-.37.296-.37.444 0 .222.074.444.074.592 0 .148-.222.074-.222.148s.148.296.148.37c0 .222-.444.814-.592 1.332-.074.37-.074.962-.222 1.48-.074.296-.296.518-.296.74-.074.666.074 1.258 0 1.702-.074.074-.37.37-.37.444 0 .296.222.666.148.962 0 .148-.148.222-.222.37-.37 1.036.222 2.294-.592 2.59.222.37.37.888.296 1.332-.074.148-.222.074-.37.222-.296.666-.074 1.924-.222 2.664-.074.148-.222.222-.296.37 0 .296.148.592.148.814-.074.148-.296.222-.296.37 0 .074.222.37.148.444-.148.666-.814 1.332-.518 2.146-.518-.296-.37.148-.74 0-.962-.296-.444-1.184-.37-1.998.074-.666-.074-1.48-.074-2.146.074-.814.148-1.48.148-2.146.222-1.776.666-3.996.888-6.068.074-1.036 0-2.072.148-2.96.296-1.776.222-3.552.518-5.476.074-.222.222-.148.296-.37.148-.444.074-1.554.074-2.146 0-.814-.074-1.554.074-2.294.074-.37.148-.74.148-1.258 0 .296.222.592.148.814 0 .296-.592.592.074.666.888-2.96.74-8.066 1.11-11.026.074-.222-.074-.592-.074-.962 0-.518.222-1.406-.074-1.628v-.148c0-.222.296-.518.37-.814.148-.518 0-1.11.148-1.628.148-.518.296-.962.444-1.332 0-.148.592-.814.592-1.036.148-1.11.74-3.552 2.146-2.738.074.074.074.74.592.592-.148.222-.148.518-.296.814l-.222.222c-.074.222.148.37.074.592 0 .148-.222 0-.296.148-.148.296.148 1.184-.074 1.628-.074.222-.296.222-.296.37-.074.148.074.296.074.37 0 .074-.222 0-.222 0-.296.518.149 1.48-.591 1.48.37.518 0 .888 0 1.628 0 .37-.297.592-.371.74 0 .592.444.962.074 1.48-.074.222-.37.148-.444.37-.074.148-.074.962-.074 1.036 0 .296.296.518-.074 1.332-.074.296-.296.518-.37.74 0 .222.222.444.222.666-.074.148-.296.37-.296.518 0 .37.074.666 0 .962-.074.444-.074 1.554 0 2.146.074.592.074.444-.148 1.258-.074.222-.222.222-.222.296 0 .222.148.296.222.518.148.444-.148.888-.222 1.554-.074.518.074.962.074 1.258-.074.518-.444.888-.444 1.332 0 .518.296.962.222 1.406.592 0 .444-.74.74-1.036.074-.222.519-.37.667-.592.444-.444.887-1.184 1.849-1.11.74.148.74.74 1.258 1.332.074.148.296.148.37.296.37.74-.37 1.554.444 2.146-.37.296-.148.37-.074.74 0 .296-.222.518-.222.592.074.148.296.148.296.37 0 .074-.222.148-.296.37 0 .148.148.296.296.444-.074.074 0 .518 0 .518-.074.37-.518.74 0 1.036-.074.222-.444.444-.296.962.074.222.296.222.296.444 0 .074-.296.296-.296.37 0-.074.37.888.444.888.074.074.37 0 .445-.148.518-.444 1.405-1.036 1.923-1.702.148-.222.148-.444.222-.592.074-.074.296 0 .37-.074.222-.296.445-.962.815-1.332.074-.074.369-.074.369-.148.222-.222.222-.666.37-.888 0-.074.222 0 .222 0 .074-.074-.074-.296 0-.444.074-.148.518-.296.74-.518.444-.518.444-.888.888-1.332.222-.222.593-.37.519-.888zM122.351 12.21c.148 0 .222 0 .296.074-.222.74-.222 1.48-.296 2.146 0-.074-.074-.222-.074-.37-.148-.592-.074-1.11.074-1.85zm0 2.22a.23.23 0 0 1 .074.148c0 .074-.074.148-.074.222v-.37zm-.074.518c0 .148-.222.222-.222.37s-.074.296-.074.444c-.074-.222-.074-.444.074-.814.074 0 .148-.074.296-.148-.074 0-.074.074-.074.148zm0 2.96c0 .074-.222.148-.222.148l-.222.444c0-.814.074-1.924.148-2.738l.222.592a1.961 1.961 0 0 0-.074.962c-.074.222.148.444.148.592zm-.444.592c.074.37.074.74.074.962 0 .148 0 .296-.074.444v-.148c-.074-.37-.148-.814 0-1.258zm-.074 5.106c-.074.222-.296.37-.296.666.074-.888 0-1.998.074-2.812.074-.518.222-1.11.296-1.554.074.518-.222 1.11-.296 1.628.074.666.37 1.406.222 2.072zm-.296.814v-.148.148z"/><path fill="#fff" fill-opacity=".6" d="m149.538 6.956 1.628.296c-.222.074-.296 0-.592.074-.296.148-.296.74-.444.74-.296.148-.518 0-.888.222-.222.148-.592.37-.666.37-.222.222 0 .37-.148.444-.074-.074-.888 0-.962 0h.074c-.888.37-5.254 2.22-5.846 2.664-.296 0-.148 1.184-.074 1.258-.222 0-1.258.074-1.258.444 0 .296 0 .592-.074.888l-.296.296c0-.148-.074-.37 0-.444 0 0 .296 0 .074-.296l-.37-.592c-.296.222.074.74.074 1.11-.148-.074-.074.148-.222.148-.222.518-.37 1.85-.518 4.366v.296c.148.074-.222.222-.296.37-.74.814.074.222-.074 1.406 0 .222-.148.148-.222.296.148.444.296.962.37 1.332l.148.518.222-.222c.148.37-.222.814-.148 1.406l-.148 1.48c0 .37.148.74 0 1.184 0 .222-.444 1.258-.37 1.554 0 .148.296.37.296.518.074.592-.296 1.332-.666 1.702.592.222.148.592.148 1.036-.148.444.074.962.148 1.48-.074.444-.222.962-.222 1.332-.074.148-.222.148-.296.296-.148.444.148.444.222.888-.074.148-.222.148-.222.296-.074.222.148.592.222.888.074.444-.148.888-.222 1.258l-.296 4.44c0 .518.148 1.11.074 1.628 0 .296-.37.74-.296 1.184.074.074.222.074.222.148.148.518-.074 1.036-.074 1.48 0 .148 0 3.034.074 3.108-.74 1.258-1.332 1.184-1.702.592.148-.444.222-.814.148-.888l.296-.592c.148-.074-.148-.444-.074-.518 0 0 .296 0 .222-.148l-.296-.592c-.296.296 0 .592 0 .888-.148.074-.074.148-.148.222-.074.222-.148.444-.148.666-.148-.296-.444-1.036-.444-1.184.148-.592.148-1.702.148-2.368-.296-2.812-.37-2.368-.296-2.812-.074-.296.222-.962.222-.962.074-.074-.222-.37-.074-.518 0 0 .296-.074 0-.296l-.37-.518v-.074s-.074 0-.074.074v-.074c0-.148.074-.222.074-.148l.222-2.22c.148-2.146.074-4.588.222-6.586.074-.444.518-.666.37-1.11 0-.074-.148-.222-.222-.37-.074-.666 0-2.072.148-2.738.074-.37.37-.74.37-1.036.148-.222-.074-.296-.148-.518-.074-.74.296-2.22.222-3.108.148-.296.074-.444.074-.666.074-.148.222-.074.222-.296.148-.444-.074-1.628 0-2.22 0-.518.444-1.48.518-2.294l.296-2.368c-.074-.888.518-1.85.444-1.998-.074-.444-.518.148-1.258 0a.667.667 0 0 1-.444.444s-.074-.222-.148-.222c-.222.074-.296.37-.518.592-.074.148-.37.074-.518.148-.296.148-.666.74-1.036.888-.148.222 0-.222-.148-.148-.37.074-.888.814-1.258.37-.222.222.074.37-.222.592-.592-.888-.814 0-1.406.296-.444.148-.888 0-1.11.592-.962-.888 1.258-2.22 2.368-2.59 0 0 .148.222.148.148.37-.074.814-.37 1.258-.592.592-.444 1.258-.666 1.628-.814.222-.074.592-.222.74-.444.74-.296 1.036-.222 1.85-.666.666-.296.518-2.22.74-3.108.074-.296.296-.518.444-.814.296-1.332.37-2.886.814-4.07.074-.222.222-.37.296-.666.444-.962.518-2.146.962-2.59.518-.518 1.184-.074 1.258.666.074.148-.074.074-.148.222-.074.592-.074 1.702-.148 2.368-.074.296.074.518 0 .74 0 .296-.296.666-.296.962-.074.444.148.666-.222.888-.074.074-.444.074-.296.444 0 .148.222.296.148.37.074.666-.518 1.48-.518 2.368 0 .296.148.814.074 1.332v.074a1.231 1.231 0 0 1 1.11-.666c1.036-.074 4.44-2.146 5.328-2.22.296-.222 1.406-.666 1.998-1.11.074 0 .222-.296.222-.296zm-1.11 2.146h-.074.074zm-13.542 4.736c-.148.074.74-.222 1.332-.444-.444-.148-.37-.148-.592.148-.074.148-.592.222-.74.296zm5.032.888s0-.074.074-.074v.074s0 .074-.074.148v-.148zm-.37 3.034c.074-1.998-.074-1.702.074-2.072 0-.222.148-.592.296-.814 0 .222.148.444.148.74-.074.666-.37 1.48-.518 2.146zm-.222 1.776c.074-.37.074-.74.148-1.258 0-.148.074-.296.074-.518v.74c-.074.296-.148.666-.222 1.036zm0 2.442c-.148-.296-.37-1.036-.296-1.184.148-.296.222-.814.296-1.258v.666c-.074.666.074 1.332 0 1.776zm-.518.666c.296-.148.444-.37.518-.666 0 .148.074.222.074.148.148-.222.074.296-.222.814-.074-.074-.148-.222-.37-.296zm-3.774 18.574h.074c-.074.148-.074.222-.074.37-.074-.148-.074-.296 0-.37zm.074 1.258c-.074.222-.074.74-.074 1.406-.074-.37-.074-.74-.074-1.11 0-.37.074-.814.074-1.184.074.222.222.444.222.666-.148 0 0 .148-.148.222zm-.074 1.406c0 .592.148 1.184.074 1.776v.148c-.074-.74-.074-1.406-.074-1.924zm.222 3.256c.148.074-.148.222-.222.37-.074-.296-.074-.592-.074-.888 0-.296.074-.518.148-.814 0 .296.074.666.074 1.036a.737.737 0 0 1 .074.296zm-.222.37.222 1.184c0 .592.296 1.554.666 2.146l-.148.222c-.148-.37-.444-1.11-.814-1.776.074-.148.222-.148.222-.37-.074-1.184-.814-.444-.148-1.332v-.074zm1.036 2.59c-.074.148-.074 0-.148-.222.074.148.148.148.148.074s0-.074 0 0v.148zm-.296.962c.148.296.148.37 0 .074v-.074z"/><path fill="#fff" fill-opacity=".6" d="M152.316 29.23c.518.148-.074.666.148 1.184-.444-.444-.148.148-.296.37-.074.074-.296 0-.37 0-.148.074-1.036.666-1.11.814-.37.518 0 .37-.518.518-.222.074-.148.222-.296.444-.148.074-.444 0-.518.148-.074.074 0 .296-.074.37-.222.148-.814 0-.666.518-.666-.074-.888.222-1.184.592l-.444.37c-.148.148-.074.518-.148.592-.148.148-.518.222-.592.37-.148.148.148.592-.148.814-.296.148-.666.148-.592.74-.592-.444-.444.518-.74.74-.222.074-1.258 0-1.48.074-.074 0-.148.222-.148.222-.592 0-1.036-.814-1.85-.518.296-.592-.37-.888-.444-1.258-.444-1.11-.296-2.886-.148-4.144.074-.296.37-.592.444-.888 0-.074 0-.148.074-.222.148-.296.222-.592.222-.814.37-.37.592-.222.518-.962-.074-.148.074-.444.148-.518 0 0 .518-.444.444-.592.444-.296.592-.814.74-1.48-.074-.074-.148-.074-.222-.074.222-.148.444-.296.592-.444.666-.592 2.442-.74 3.256.074-.37.444-.37.962-.666 1.11-.37.148-.814-.222-1.11.074l-.222.148c-.074.148 0 .444-.148.592-.222.222-.666.296-.814.444-.148.222.074.518-.222.888-.074.148-.518.222-.518.592-.074.222.222.444.148.592-.074.222-.296.222-.444.518-.074.148 0 .37-.074.444 0 .074-.222 0-.222 0-.074.37.222.518.222.74 0 0-.222.148-.222.222-.148.592-.518 3.108 0 3.552.296.296 1.036.37 1.406.148.148-.148.666-.518.74-.592.074-.148.592-.814.592-.814 0-.444-.518-.444-.888-.666l-.74-.518c-.666-1.554 1.036-4.144 2.59-3.922 0 0 .888.37.962.444.148.148-.074.222.074.518.148.296.37-.074.444.296.148.518-.37.888.074 1.036.074 0 .444-.074.592-.148.148-.148.814-.518 1.036-.666.148-.074.074-.222.148-.296.37-.296 1.11-.518 1.554-.962.222-.148.666-.444.888-.518.222-.222-.074-.37.222-.296zm-9.62-2.294c.148-.148.296-.296.37-.296-.074.148-.222.222-.37.296zm-.222.37.222-.37c-.074.148-.148.37-.222.592 0-.074-.074-.148 0-.222zm0 .296c-.074.074-.074.148-.148.148l.148-.222v.074zm-.222.296c0 .296-.222.444-.37.592 0-.074-.074-.222 0-.296.074-.074.296-.222.444-.444 0 .074-.074.074-.074.148zm-.37.74a.578.578 0 0 1-.296.296l.074-.222c0-.074.148-.148.222-.222v.148zm-.444.444.148-.148-.37 1.48c0-.444 0-.888.222-1.332zm-.518 2.294.296-.962v.666c-.074 0-.074.074-.148.074 0 .148-.074.222-.148.222zm5.476 1.332c.444-1.036 0-1.11-.074-1.924-.222.222-.592.074-.74.222-.074 0 0 .296-.148.37-.518.222 0 .074-.074.222-.222.296-.518.222-.592.592-.148.666.592 1.48 1.332 1.11-.074 0 .074-.37.074-.37.074-.222.148-.074.222-.222zm-5.772-1.036c0-.148.148-.148.296-.296l-.148.592s-.222-.222-.148-.296z"/><path fill="#fff" fill-opacity=".6" d="M157.27 34.262c.222 0 .37-.148.444-.37v.074c0 .148-.444.518-.518.888 0 .222.148.444.074.74 0 .518-.37.962-.444 1.406-.074.37.148.814.074 1.332-.074.222-.222.296-.222.518-.148.444 0 .888 0 1.258-.074.222-.222 0-.296.148-.222.444-.222 1.554-.296 1.924-.148.444.222.814.148 1.11-.074.222-.222.074-.444.37-.148.444-.222.814-.222.962 0 .148-.222.296-.37.518 0-.074-.074-.222-.148-.37v.962c.074-.074.074-.148.074-.222.074.222.222.37.222.518a.791.791 0 0 1-.222.37l-.074-.296v.666-.148c.148.444.444.962.296 1.184-.148.074-.888.074-.888.074-.074-.074 0-.296-.074-.37-.148-.148-.518 0-.518-.296l.296-3.108c.222-.814.148-1.776.37-2.738 0-.148.222-.296.222-.37.222-1.11.074-2.516.37-3.256.444-1.332.296-3.404.666-5.328.074-.074.222-.148.296-.296.148-.518.074-1.998.074-2.368 0-.592 0-1.036-.592-1.036-.666.074-.666 1.11-.666 1.11-.222.222-.37 0-.518.148-.148.148.148.148 0 .518-.074.074-.518.074-.74.444-.222.296-.074.814-.222 1.036-.148.148-.518.148-.518.296-.148.37 0 1.332-.296 1.628-.148.222-.518.148-.148.666-.518-.222-.518.888-.148 1.11 0 .222-.222.222-.444.222.074.962.37 2.442 0 3.552-.074.222-.37.222-.37.37-.074.148.148.222.148.37 0 .296-.518 1.406-.592 1.48-.074 0-.888-.222-1.036-.444-.222-.222-.444-1.332-.444-1.406 0-.148.222-.074.296-.296.074-.518-.222-1.332-.296-1.924 0-.148.148-.37.148-.666.074-.074-.148-.148-.148-.148.074-.148.222-.296.296-.518.222-.962.074-3.848.074-5.18-.074-1.924-.148-3.404.074-5.254.074-.814.37-2.146.592-2.22.518-.518 1.184.296 1.258.518.074.222-.37.74.148.962-.518.296-.074.74-.074 1.184.074.444-.222.962-.222 1.406 0 .222.148.222.148.222.074.444-.148 1.036-.148 1.406 0 .666.296 1.332.074 1.998.74-.592 1.11-1.924 1.85-2.664.296-.296.666-.518 1.036-.888.74-.666 2.072-1.258 2.738.074.074.222.37.148.37.296.074.074.148.666.148.962.074.222-.074.518-.148.74l-.074-.888c-.074.074-.074.148-.074.296-.222.296-.074.74 0 .962-.148.444-.37.37-.148 1.036.148.222.074.592 0 .666 0 0-.148.444-.148.592-.148.444-.222 1.036-.074 1.776zm.592-4.144c-.074-.074-.074-.148-.074-.222v-.074l.074.296zm.074.444v.222l-.074-.666c0 .148.148.296.074.444zm.074 1.184c0 .148-.37.592-.148.888-.074.444-.074.962-.148 1.258-.074-.074-.222-.296-.148-.444 0-.296.222-.296.222-.444 0-.222-.222-.444-.222-.666 0-.148.222 0 .222-.222s-.148-.444-.148-.666c0-.222.148-.444.296-.666l.074.962zm-2.886 13.764v-.148c0-.074.074-.148.074-.222.074.222 0 .296-.074.37zm-.074 1.11v-.074c0-.074 0-.074.074-.148 0 .074 0 .148-.074.222z"/></svg>