<svg xmlns="http://www.w3.org/2000/svg" width="111" height="25" fill="none"><path fill="#000" d="M13.82 19.077h-1.76l-5.917-7.181v7.09l-.09.091H3.296l-.09-.09V6.07l.09-.09H5.06c.173.143 1.151 1.332 2.935 3.567l2.981 3.614V6.07l.09-.09h2.756l.09.09v12.917l-.09.09zm12.783 0h-9.71l-.09-.09V6.07l.09-.09h9.53l.09.09v2.71l-.09.09h-6.73v2.168h6.413l.09.09v2.71l-.09.09h-6.413v2.259h6.91l.09.09v2.71l-.09.09zm13.381 0h-3.477c-.256-.256-1.265-1.671-3.026-4.245h-.045l-3.071 4.245h-3.433l-.09-.09 4.787-6.594-4.426-6.323v-.09h3.387c.52.64 1.453 1.95 2.8 3.929.114-.083.821-1.062 2.123-2.936l.768-.994h3.387v.046l-4.426 6.323 4.742 6.639v.09zm5.442.158c-1.912 0-3.432-.873-4.561-2.62-.422-.887-.633-1.685-.633-2.393V6.047l.09-.09h2.71l.09.09v7.407c0 1.566.543 2.5 1.627 2.8l.542.09h.316c1.076 0 1.799-.601 2.168-1.806l.045-.497V6.047l.09-.09h2.755l.09.09v7.859c0 2.507-1.234 4.208-3.703 5.103a6.771 6.771 0 0 1-1.626.226zm12.094-.011c-2.108 0-3.794-.768-5.058-2.304-.279-.391-.565-.933-.859-1.626 1.657-.843 2.53-1.264 2.62-1.264.587 1.535 1.656 2.303 3.207 2.303h.27c1.506-.105 2.259-.452 2.259-1.039l.045-.27c0-.648-1.28-1.145-3.839-1.491-2.59-.587-3.884-1.777-3.884-3.568v-.316c0-1.792 1.13-3.026 3.387-3.704.648-.12 1.175-.18 1.581-.18h.677c2.229 0 3.915 1.053 5.059 3.161v.136l-2.484 1.4c-.602-1.114-1.19-1.671-1.762-1.671 0-.06-.421-.12-1.264-.181-1.039 0-1.761.271-2.168.813-.06.24-.09.376-.09.406 0 .475.948.836 2.845 1.084 1.822.407 2.95.798 3.387 1.175.994.775 1.49 1.769 1.49 2.98 0 1.89-1.053 3.17-3.16 3.84a8.946 8.946 0 0 1-2.259.316zm12.907 0h-.09c-2.597 0-4.555-1.099-5.872-3.297-.512-1.031-.768-2.055-.768-3.07v-.678c0-2.274 1.009-4.08 3.026-5.42 1.1-.632 2.183-.948 3.252-.948h.813c1.874 0 3.56.888 5.058 2.664-.007.083-.624.76-1.851 2.033-1.054-1.235-2.274-1.852-3.659-1.852-1.73 0-2.905.798-3.522 2.394a4.56 4.56 0 0 0-.226 1.49c0 2.047.993 3.297 2.98 3.749l.904.045c.918 0 1.671-.256 2.258-.768v-1.039h-3.749l-.09-.09v-2.665l.09-.09h6.55l.09.09v5.059c-1.476 1.595-3.207 2.393-5.194 2.393zm18.823-.147h-3.07c-.189-.27-.61-1.174-1.265-2.71H79.72c-.053.023-.46.911-1.22 2.665l-.045.045h-3.07l-.046-.045h-.045l5.871-13.053h2.213c.106.06.587 1.1 1.445 3.117l4.472 9.936-.045.045zm-4.335-2.71-2.575-6.142h-.09l-2.529 6.142h5.194zm7.756 2.71h-2.755l-.09-.09V8.825h-3.884l-.09-.09V6.07l.09-.09h10.749l.09.09v2.664l-.09.09h-3.93v10.163l-.09.09zm15.03 0h-9.71l-.09-.09V6.07l.09-.09h9.529l.091.09v2.71l-.091.09h-6.729v2.168h6.413l.091.09v2.71l-.091.09h-6.413v2.259h6.91l.09.09v2.71l-.09.09z"/></svg>