<svg xmlns="http://www.w3.org/2000/svg" width="111" height="25" fill="none"><path fill="#000" d="M25.172 20a9.732 9.732 0 0 1-2.595-.332 7.408 7.408 0 0 1-2.24-.996 7.17 7.17 0 0 1-1.765-1.596c-.495-.62-.883-1.37-1.163-2.227-.28-.857-.409-1.789-.409-2.796 0-.9.108-1.745.334-2.559a7.435 7.435 0 0 1 2.638-3.952c.635-.482 1.378-.857 2.24-1.135A9.331 9.331 0 0 1 25 4c.775 0 1.55.107 2.336.321a9.117 9.117 0 0 1 2.261.986 7.567 7.567 0 0 1 1.863 1.574l-2.972 2.495c-1.023-.964-2.186-1.456-3.499-1.456a3.81 3.81 0 0 0-1.109.171c-.355.118-.69.29-.99.525a3.905 3.905 0 0 0-.797.835 3.826 3.826 0 0 0-.528 1.157c-.13.45-.194.931-.194 1.445 0 .557.087 1.093.259 1.586.172.492.409.931.721 1.317.312.385.71.685 1.206.9.485.224 1.023.331 1.615.331.818 0 1.593-.17 2.347-.514v-1.435h-2.67v-3.362h6.6v7.25c-.732.546-1.658.996-2.8 1.35a11.705 11.705 0 0 1-3.477.524zm8.199-.193V4.225h4.253v15.582h-4.253zM47.514 20a9.732 9.732 0 0 1-2.595-.332 7.408 7.408 0 0 1-2.24-.996 7.173 7.173 0 0 1-1.766-1.596c-.495-.62-.882-1.37-1.162-2.227-.28-.857-.41-1.789-.41-2.796 0-.9.108-1.745.334-2.559a7.437 7.437 0 0 1 2.638-3.952c.636-.482 1.378-.857 2.24-1.135A9.331 9.331 0 0 1 47.34 4c.776 0 1.55.107 2.337.321a9.119 9.119 0 0 1 2.26.986A7.59 7.59 0 0 1 53.8 6.881l-2.97 2.495c-1.023-.964-2.186-1.456-3.5-1.456a3.81 3.81 0 0 0-1.108.171 3.27 3.27 0 0 0-.991.525 3.93 3.93 0 0 0-.797.835 3.826 3.826 0 0 0-.527 1.157c-.13.45-.194.931-.194 1.445 0 .557.086 1.093.258 1.586.173.492.41.931.722 1.317.312.385.71.685 1.206.9.484.224 1.022.331 1.615.331.818 0 1.593-.17 2.347-.514v-1.435h-2.67v-3.362h6.6v7.25c-.732.546-1.658.996-2.8 1.35a11.705 11.705 0 0 1-3.477.524zm15.779 0a9.732 9.732 0 0 1-2.595-.332 7.408 7.408 0 0 1-2.24-.996 7.173 7.173 0 0 1-1.765-1.596c-.496-.62-.883-1.37-1.163-2.227-.28-.857-.41-1.789-.41-2.796 0-.9.108-1.745.334-2.559a7.44 7.44 0 0 1 2.638-3.952c.636-.482 1.378-.857 2.24-1.135A9.331 9.331 0 0 1 63.12 4c.776 0 1.55.107 2.337.321a9.119 9.119 0 0 1 2.26.986A7.59 7.59 0 0 1 69.58 6.88l-2.97 2.496c-1.023-.964-2.186-1.456-3.5-1.456a3.81 3.81 0 0 0-1.108.171 3.27 3.27 0 0 0-.991.525 3.93 3.93 0 0 0-.797.835 3.826 3.826 0 0 0-.527 1.157c-.13.45-.194.931-.194 1.445 0 .557.086 1.093.258 1.586.173.492.41.931.722 1.317.312.385.71.685 1.206.9.484.224 1.022.331 1.615.331.818 0 1.593-.17 2.347-.514v-1.435h-2.67v-3.362h6.6v7.25c-.732.546-1.658.996-2.8 1.35a11.705 11.705 0 0 1-3.477.524zm8.102-.193V4.225h4.22v11.877h6.224v3.705H71.395zm11.731 0V4.225h10.411V7.94h-6.352v2.346h4.974v3.62h-4.974v2.195H94v3.705H83.126z"/></svg>