<svg xmlns="http://www.w3.org/2000/svg" width="111" height="25" fill="none"><path fill="#000" fill-rule="evenodd" d="M27.455 12.5c0 6.351-5.149 11.5-11.5 11.5s-11.5-5.149-11.5-11.5S9.604 1 15.955 1s11.5 5.149 11.5 11.5zM15.503 6.75a1.127 1.127 0 0 0 0 2.255h5.073a1.127 1.127 0 0 0 0-2.255h-5.073zm-2.65 2.818a1.127 1.127 0 0 0 0 2.255h5.073a1.127 1.127 0 1 0 0-2.255h-5.073zm-.396 3.946c0-.623.505-1.127 1.127-1.127h5.073a1.127 1.127 0 1 1 0 2.254h-5.073a1.127 1.127 0 0 1-1.127-1.127zm-1.128 1.691a1.127 1.127 0 1 0 0 2.255h5.073a1.127 1.127 0 1 0 0-2.255H11.33zM74.322 8.9h-1.636l-.298 1.423h1.637l-1.615 7.713h4.313l1.658-7.713h2.656L79.4 18.035h4.334L85.69 8.9h-7.012l.34-1.573c.085-.354.213-.637.383-.85.17-.226.368-.396.595-.51a2.22 2.22 0 0 1 .743-.255c.27-.042.539-.064.808-.064.51 0 .984.064 1.423.192.454.113.907.269 1.36.467l.68-2.103a12.148 12.148 0 0 0-2.04-.617 9.845 9.845 0 0 0-1.976-.19 9.52 9.52 0 0 0-2.23.254 5.991 5.991 0 0 0-1.913.786 5.264 5.264 0 0 0-1.466 1.445c-.397.581-.687 1.296-.872 2.146l-.19.872zm-31.968-.447c.043-.212.064-.503.064-.87 0-.213-.014-.419-.043-.617a1.96 1.96 0 0 0-.148-.553.78.78 0 0 0-.32-.382c-.14-.1-.325-.149-.552-.149-.255 0-.488.057-.7.17a2.062 2.062 0 0 0-.956 1.062 2.04 2.04 0 0 0-.128.723c0 .368.092.652.276.85a2.3 2.3 0 0 0 .765.489c.311.127.666.233 1.062.318.397.085.808.185 1.233.298.354.1.708.227 1.062.383.354.155.666.368.935.637.283.255.51.595.68 1.02.17.41.255.928.255 1.551 0 .893-.177 1.643-.531 2.252a4.211 4.211 0 0 1-1.466 1.488c-.624.382-1.367.659-2.232.829a14.2 14.2 0 0 1-2.783.255c-1.02 0-1.856-.064-2.508-.192-.637-.141-1.14-.29-1.508-.446-.44-.184-.765-.397-.978-.637l.723-2.912h3.74c-.015.128-.029.305-.043.532a8.035 8.035 0 0 0-.021.51 2.316 2.316 0 0 0 .254 1.04c.1.157.235.284.405.383.17.1.382.15.637.15.283 0 .531-.065.744-.192.226-.128.41-.284.552-.468.156-.198.27-.41.34-.637a2.1 2.1 0 0 0 .128-.701c0-.312-.078-.574-.234-.786a1.674 1.674 0 0 0-.595-.532 3.678 3.678 0 0 0-.892-.382 43.033 43.033 0 0 0-1.02-.34c-.34-.1-.702-.22-1.084-.361a3.701 3.701 0 0 1-1.02-.595 3.27 3.27 0 0 1-.786-.957c-.199-.396-.298-.9-.298-1.508 0-.907.227-1.665.68-2.274a5.421 5.421 0 0 1 1.743-1.509 7.88 7.88 0 0 1 2.316-.807c.836-.17 1.629-.255 2.38-.255.991 0 1.841.12 2.55.361.722.227 1.267.496 1.636.808l-.787 2.953h-3.527zm7.032 13.153H45.05L47.728 8.9h3.464l.382 1.36h.128c.51-.539 1.076-.921 1.7-1.148a5.272 5.272 0 0 1 1.87-.361c.495 0 .906.078 1.232.234.34.141.61.34.807.594.199.255.34.56.425.914.085.354.128.73.128 1.126 0 .199-.014.496-.043.893-.028.397-.092.843-.19 1.339-.1.481-.242.984-.426 1.508-.184.51-.432.978-.744 1.403a3.51 3.51 0 0 1-1.147 1.04c-.453.27-.999.405-1.636.405a4.166 4.166 0 0 1-1.934-.468 3.801 3.801 0 0 1-.722-.489 2.332 2.332 0 0 1-.447-.595h-.127l-1.062 4.951zm2.252-5.46c.34 0 .623-.178.85-.532.227-.368.41-.793.552-1.275.142-.496.241-.984.298-1.466.07-.496.106-.864.106-1.105 0-.283-.05-.517-.149-.701-.085-.184-.248-.276-.488-.276-.27 0-.525.099-.765.297a3.123 3.123 0 0 0-.532.489l-.828 3.888c.113.156.248.312.404.468.155.141.34.212.552.212zm6.162 1.89h4.313L64.09 8.9h-4.356L57.8 18.035zm6.63-11.07a1.65 1.65 0 0 0 .212-.85c0-.567-.191-.985-.574-1.254-.382-.269-.85-.403-1.402-.403a3.31 3.31 0 0 0-.914.127 2.423 2.423 0 0 0-.765.383 1.68 1.68 0 0 0-.51.616c-.127.24-.191.517-.191.828 0 .581.191 1.006.574 1.275.382.27.857.404 1.423.404.298 0 .588-.042.871-.127a2.17 2.17 0 0 0 .744-.383c.227-.17.404-.375.531-.616zm.36 1.934c.524-.114.984-.241 1.381-.383a5.137 5.137 0 0 0 1.084-.531 4.95 4.95 0 0 0 .956-.786c.312-.312.645-.694.999-1.148h2.188L70.782 8.9h1.657l-.276 1.423h-1.678l-.872 4.144c-.07.325-.127.616-.17.87a3.873 3.873 0 0 0-.063.596c0 .283.099.46.297.531.213.07.602.106 1.169.106l-.319 1.466c-.1.029-.255.05-.467.064-.199.014-.425.029-.68.043a6.635 6.635 0 0 1-.765.042c-.255.014-.482.021-.68.021-.354 0-.701-.028-1.041-.084a2.652 2.652 0 0 1-.914-.277 1.834 1.834 0 0 1-.659-.659c-.156-.283-.234-.665-.234-1.147 0-.17.007-.382.022-.637.028-.255.078-.539.148-.85l.893-4.229h-1.657L64.79 8.9zm22.346 0H90.6l.318 1.593h.149c.326-.51.744-.942 1.254-1.296.51-.354 1.183-.531 2.018-.531.057 0 .142.007.255.021.128 0 .262.021.404.064.156.028.312.078.468.149.17.056.332.141.488.255l-.935 4.377h-2.316c-.028-.879-.106-1.488-.234-1.828-.127-.354-.332-.53-.616-.53a1.24 1.24 0 0 0-.467.105c-.156.057-.319.192-.489.404l-1.36 6.353h-4.335L87.136 8.9zm12.63 5.758c.029-.283.071-.58.128-.893h5.971c.226-.311.396-.687.51-1.126.113-.453.17-.87.17-1.253 0-.935-.362-1.622-1.084-2.062-.708-.439-1.771-.658-3.187-.658-1.304 0-2.394.156-3.273.467-.864.312-1.558.73-2.082 1.254a4.532 4.532 0 0 0-1.105 1.764 6.67 6.67 0 0 0-.319 2.04c0 .764.128 1.409.383 1.933.269.51.63.92 1.083 1.232a4.35 4.35 0 0 0 1.594.66c.61.127 1.268.19 1.976.19.383 0 .786-.02 1.211-.063.425-.029.843-.078 1.254-.149.411-.085.8-.191 1.169-.319.368-.127.694-.283.977-.467l.553-2.274h-3.485a2.74 2.74 0 0 1-.361.765 2.756 2.756 0 0 1-.468.574 1.895 1.895 0 0 1-.489.361.899.899 0 0 1-.425.128.597.597 0 0 1-.403-.128 1.373 1.373 0 0 1-.213-.34 2.265 2.265 0 0 1-.085-.446 4.755 4.755 0 0 1-.021-.425c0-.227.007-.482.021-.765zm2.231-4.547c.199 0 .369.078.51.233.142.156.213.454.213.893 0 .156-.014.326-.043.51a5.063 5.063 0 0 1-.063.51l-.085.531h-2.423a6.83 6.83 0 0 1 .319-.999c.127-.325.269-.609.425-.85.156-.255.326-.453.51-.595.198-.155.411-.233.637-.233z" clip-rule="evenodd"/></svg>